<svg version="1.1" id="" xmlns="http://www.w3.org/2000/svg" xmlns:xlink="http://www.w3.org/1999/xlink" x="0px" y="0px" width="64px" height="64px" viewBox="0 0 64 64" enable-background="new 0 0 64 64" xml:space="preserve">
<path fill="" d="M42.654,19.021c2.805,0,5.086,2.281,5.086,5.084c0,2.804-2.281,5.086-5.086,5.086
	c-2.804,0-5.085-2.282-5.085-5.086C37.569,21.302,39.851,19.021,42.654,19.021 M42.654,18.021c-3.363,0-6.085,2.724-6.085,6.084
	c0,3.361,2.722,6.086,6.085,6.086c3.361,0,6.086-2.725,6.086-6.086C48.74,20.745,46.016,18.021,42.654,18.021L42.654,18.021z
	 M45.057,22.145c0.191,0.05,0.342,0.199,0.393,0.391c0.05,0.191-0.003,0.395-0.144,0.535l-2.653,2.657
	c-0.103,0.105-0.242,0.165-0.39,0.167c-0.149-0.004-0.288-0.064-0.393-0.173l-1.487-1.505c-0.214-0.217-0.21-0.564,0.003-0.777
	c0.219-0.214,0.564-0.211,0.779,0.006l1.098,1.108l2.261-2.261C44.659,22.151,44.866,22.095,45.057,22.145z M14.49,28.187
	c-0.429-2.138,0.002-4.694,1.337-6.936c0.692-1.162,1.588-2.184,2.659-3.039c0.252-0.201,0.61-0.2,0.86,0.003
	c3.844,3.11,7.232,6.74,10.071,10.789l4.586,6.543c0.016,0.022,0.03,0.048,0.043,0.071c0.665,1.245,2.407,2.186,4.052,2.186
	c1.158,0,2.493-0.447,3.174-1.062c0.151-0.139,0.356-0.2,0.56-0.17c2.61,0.384,4.527,1.928,5.439,2.814
	c1.356,1.319,2.232,2.854,2.232,3.913c0,1.871-2.398,2.282-3.187,2.418c-1.587,0.274-3.72,0.329-6.433,0.329h-5.617
	c-1.901,0-3.635-1.147-4.417-2.926c-1.699-3.864-4.305-7.315-7.557-10.024l-0.063,0.102c-0.675,1.395-1.033,2.948-1.033,4.497v7.665
	c0,0.379-0.307,0.687-0.687,0.687h-2.747c-0.381,0-0.688-0.308-0.688-0.687v-8.48c0-2.051-0.568-4.315-1.782-6.49
	c-0.372-0.667-0.642-1.401-0.8-2.182C14.492,28.201,14.492,28.194,14.49,28.187z M21.209,32.24
	c-1.537-1.154-3.189-2.143-4.932-2.951c0.309,0.678,1.945,3.164,2.152,6.93c0.014,0.232,0.021,0.455,0.021,0.661v7.793h1.374v-6.978
	C19.824,35.547,20.467,33.44,21.209,32.24z M15.777,27.569c6.857,2.847,12.355,8.234,15.331,14.999
	c0.562,1.278,1.802,2.104,3.159,2.104h5.617c2.644,0,4.709-0.052,6.199-0.309c0.934-0.16,2.046-0.476,2.046-1.064
	c0-0.577-0.624-1.769-1.816-2.929c-0.758-0.737-2.31-1.994-4.388-2.391c-0.957,0.715-2.473,1.197-3.827,1.197
	c-2.133,0-4.329-1.207-5.243-2.874l-4.563-6.511c-2.656-3.789-5.807-7.203-9.371-10.151c-0.758,0.674-1.399,1.45-1.913,2.313
	C15.903,23.807,15.527,25.879,15.777,27.569z"/>
</svg>
