<?xml version="1.0" encoding="utf-8"?>
<!-- Generator: Adobe Illustrator 16.0.0, SVG Export Plug-In . SVG Version: 6.00 Build 0)  -->
<!DOCTYPE svg PUBLIC "-//W3C//DTD SVG 1.1//EN" "http://www.w3.org/Graphics/SVG/1.1/DTD/svg11.dtd">
<svg version="1.1" id="Слой_1" xmlns="http://www.w3.org/2000/svg" xmlns:xlink="http://www.w3.org/1999/xlink" x="0px" y="0px"
	 width="64px" height="64px" viewBox="0 0 64 64" enable-background="new 0 0 64 64" xml:space="preserve">
<g>
	<rect opacity="0" fill="#FFFFFF" fill-opacity="0" width="64" height="64"/>
	<circle fill="#00B3FF" cx="32" cy="32" r="30.003"/>
	<path fill="#FFFFFF" d="M52.042,32.986h-4.841v4.688h5.612v1.377h-7.435V26.012h7.381v1.382h-5.559v4.22h4.841V32.986
		L52.042,32.986z M17.854,33.243h-4.848v5.807h-1.82V26.01h7.449v1.384h-5.629v4.479h4.848V33.243z M23.986,33.422v5.628h-1.822
		V26.021h4.063c1.238,0,2.194,0.318,2.872,0.957c0.673,0.639,1.01,1.556,1.01,2.751c0,0.681-0.155,1.276-0.472,1.783
		c-0.312,0.505-0.764,0.897-1.357,1.184c0.652,0.22,1.122,0.594,1.413,1.122c0.288,0.53,0.435,1.182,0.435,1.96v1.139
		c0,0.4,0.039,0.775,0.119,1.116c0.079,0.343,0.22,0.615,0.417,0.813v0.203h-1.874c-0.203-0.195-0.334-0.489-0.392-0.891
		c-0.056-0.397-0.084-0.819-0.084-1.263v-1.104c0-0.731-0.164-1.309-0.496-1.731c-0.331-0.426-0.789-0.64-1.368-0.64L23.986,33.422
		L23.986,33.422z M23.986,32.051h2.152c0.734,0,1.276-0.199,1.626-0.595c0.349-0.398,0.525-0.963,0.525-1.693
		c0-0.749-0.171-1.329-0.514-1.741c-0.339-0.414-0.855-0.62-1.551-0.62h-2.239V32.051z M41.079,32.986h-4.838v4.688h5.609v1.377
		h-7.432V26.012h7.38v1.382h-5.558v4.22h4.838V32.986z"/>
</g>
</svg>
