<?xml version="1.0" encoding="utf-8"?>
<!-- Generator: Adobe Illustrator 16.0.0, SVG Export Plug-In . SVG Version: 6.00 Build 0)  -->
<!DOCTYPE svg PUBLIC "-//W3C//DTD SVG 1.1//EN" "http://www.w3.org/Graphics/SVG/1.1/DTD/svg11.dtd">
<svg version="1.1" id="Слой_1" xmlns="http://www.w3.org/2000/svg" xmlns:xlink="http://www.w3.org/1999/xlink" x="0px" y="0px"
	 width="64px" height="64px" viewBox="0 0 64 64" enable-background="new 0 0 64 64" xml:space="preserve">
<rect opacity="0" fill="#FFFFFF" fill-opacity="0" width="64" height="64"/>
<circle fill="#00B3FF" cx="32" cy="32" r="30.003"/>
<path fill="#FFFFFF" d="M43.391,25.229c-0.015-0.745-0.026-1.45-0.026-2.133c0-0.384-0.313-0.696-0.696-0.696
	c-4.245,0-7.48-1.222-10.183-3.85c-0.131-0.127-0.303-0.197-0.485-0.197s-0.354,0.07-0.485,0.197
	c-2.701,2.628-5.938,3.85-10.183,3.85c-0.384,0-0.696,0.313-0.696,0.696c0,0.693-0.015,1.404-0.029,2.154
	c-0.132,6.912-0.312,16.381,11.165,20.357c0.146,0.053,0.309,0.053,0.455,0C43.705,41.63,43.525,32.162,43.393,25.25L43.391,25.229z
	 M40.925,35.97c-1.393,3.87-4.28,6.556-8.83,8.209l-0.096,0.036l-0.096-0.036c-4.549-1.653-7.438-4.339-8.831-8.209
	c-1.214-3.374-1.142-7.094-1.073-10.691v-0.022c0.008-0.419,0.016-0.815,0.021-1.208l0.004-0.264l0.263-0.011
	c3.863-0.163,6.89-1.31,9.528-3.608l0.185-0.161l0.184,0.16c2.638,2.298,5.667,3.444,9.528,3.607l0.263,0.011l0.005,0.265
	c0.006,0.4,0.013,0.804,0.02,1.23C42.069,28.875,42.14,32.596,40.925,35.97z M37.489,28.81c0.131,0.132,0.205,0.306,0.205,0.491
	s-0.072,0.362-0.205,0.492l-5.394,5.396c-0.132,0.13-0.306,0.204-0.492,0.204c-0.186,0-0.361-0.073-0.492-0.204l-2.696-2.698
	c-0.273-0.27-0.273-0.713,0-0.983c0.131-0.132,0.306-0.204,0.49-0.204c0.186,0,0.361,0.072,0.494,0.204l2.203,2.204l4.903-4.902
	c0.13-0.132,0.305-0.205,0.492-0.205C37.183,28.607,37.358,28.68,37.489,28.81z"/>
</svg>
