<?xml version="1.0" encoding="utf-8"?>
<!-- Generator: Adobe Illustrator 16.0.0, SVG Export Plug-In . SVG Version: 6.00 Build 0)  -->
<!DOCTYPE svg PUBLIC "-//W3C//DTD SVG 1.1//EN" "http://www.w3.org/Graphics/SVG/1.1/DTD/svg11.dtd">
<svg version="1.1" id="Слой_1" xmlns="http://www.w3.org/2000/svg" xmlns:xlink="http://www.w3.org/1999/xlink" x="0px" y="0px"
	 width="64px" height="64px" viewBox="0 0 64 64" enable-background="new 0 0 64 64" xml:space="preserve">
<rect opacity="0" fill="#201600" width="64" height="64"/>
<path fill="#0079BF" d="M27.525,46.201c-2.435,0-4.413,1.979-4.413,4.412c0,2.436,1.979,4.414,4.413,4.414
	c2.434,0,4.413-1.979,4.413-4.414C31.938,48.181,29.959,46.201,27.525,46.201z M27.525,52.82c-1.216,0-2.207-0.99-2.207-2.207
	s0.99-2.207,2.207-2.207s2.207,0.99,2.207,2.207S28.742,52.82,27.525,52.82z M43.617,46.201c-2.432,0-4.412,1.979-4.412,4.412
	c0,2.436,1.98,4.414,4.412,4.414c2.436,0,4.414-1.979,4.414-4.414C48.031,48.181,46.053,46.201,43.617,46.201z M43.617,52.82
	c-1.215,0-2.205-0.99-2.205-2.207s0.99-2.207,2.205-2.207c1.217,0,2.207,0.99,2.207,2.207S44.834,52.82,43.617,52.82z
	 M57.796,19.009v0.309c0,0.546-0.124,1.1-0.353,1.588l-7.613,18.9c-0.759,1.608-2.396,2.648-4.174,2.648H22.705l-7.192-27.497
	c-0.238-0.819-1-1.391-1.853-1.391H3.184c-0.739,0-1.34-0.601-1.34-1.34s0.601-1.34,1.34-1.34H13.66
	c2.037,0,3.857,1.366,4.428,3.328l6.668,25.559h20.9c0.744,0,1.43-0.435,1.742-1.095l7.613-18.9c0.068-0.143,0.104-0.302,0.104-0.46
	v-0.309c0-0.596-0.485-1.081-1.082-1.081H29.304c-0.607-0.126-1.068-0.7-1.068-1.341c0-0.724,0.589-1.325,1.318-1.338l24.479-0.001
	C56.107,15.248,57.796,16.935,57.796,19.009z"/>
</svg>
