<?xml version="1.0" encoding="utf-8"?>
<!-- Generator: Adobe Illustrator 16.0.0, SVG Export Plug-In . SVG Version: 6.00 Build 0)  -->
<!DOCTYPE svg PUBLIC "-//W3C//DTD SVG 1.1//EN" "http://www.w3.org/Graphics/SVG/1.1/DTD/svg11.dtd">
<svg version="1.1" id="Слой_1" xmlns="http://www.w3.org/2000/svg" xmlns:xlink="http://www.w3.org/1999/xlink" x="0px" y="0px"
	 width="64px" height="64px" viewBox="0 0 64 64" enable-background="new 0 0 64 64" xml:space="preserve">
<rect opacity="0" fill="#ffffff" width="64" height="64"/>
<g>
	<path fill="#ffffff" d="M19.939,13.001c0.046,0,0.093,0.001,0.14,0.002c1.481,0.062,2.916,0.982,4.387,2.811
		c4.342,5.401,2.385,7.326,0.119,9.558l-0.4,0.396c-0.371,0.371-1.071,2.087,5.445,8.602c2.126,2.127,3.94,3.684,5.388,4.625
		c0.684,0.444,1.77,1.059,2.554,1.059c0.264,0,0.493-0.069,0.661-0.237l0.403-0.407c1.26-1.277,2.423-2.457,4.17-2.457
		c1.345,0,3.034,0.697,5.38,2.584c1.83,1.47,2.748,2.904,2.809,4.387c0.09,2.148-1.622,3.773-3.133,5.209
		c-0.249,0.237-0.492,0.467-0.718,0.691c-0.781,0.783-2.03,1.176-3.603,1.176c-1.582,0-3.491-0.396-5.59-1.189
		c-4.604-1.734-9.613-5.166-14.104-9.656c-4.492-4.492-7.922-9.502-9.659-14.105c-1.578-4.185-1.583-7.621-0.01-9.192
		c0.227-0.227,0.457-0.47,0.694-0.72C16.277,14.66,17.859,13.001,19.939,13.001 M19.939,10.001c-3.373,0-5.608,2.35-7.24,4.066
		l-0.067,0.071c-0.195,0.206-0.385,0.406-0.572,0.593c-2.467,2.466-2.714,6.976-0.678,12.375
		c1.884,4.995,5.558,10.381,10.345,15.168c4.791,4.79,10.177,8.463,15.167,10.343c2.426,0.916,4.664,1.382,6.647,1.382
		c3.037,0,4.79-1.119,5.727-2.057c0.167-0.167,0.354-0.344,0.544-0.525l0.119-0.113c1.776-1.688,4.208-3.998,4.061-7.506
		c-0.098-2.397-1.382-4.557-3.927-6.601c-2.753-2.214-5.06-3.245-7.259-3.245c-2.629,0-4.361,1.425-5.739,2.781
		c-0.123-0.07-0.262-0.154-0.413-0.253c-0.876-0.569-2.438-1.766-4.902-4.231c-2.837-2.836-4.008-4.49-4.486-5.322
		c2.719-2.843,4.753-6.507-0.461-12.993c-2.045-2.543-4.204-3.828-6.599-3.928C20.104,10.003,20.021,10.001,19.939,10.001
		L19.939,10.001z"/>
</g>
</svg>
