<?xml version="1.0" encoding="utf-8"?>
<!-- Generator: Adobe Illustrator 16.0.0, SVG Export Plug-In . SVG Version: 6.00 Build 0)  -->
<!DOCTYPE svg PUBLIC "-//W3C//DTD SVG 1.1//EN" "http://www.w3.org/Graphics/SVG/1.1/DTD/svg11.dtd">
<svg version="1.1" id="close_1_" xmlns="http://www.w3.org/2000/svg" xmlns:xlink="http://www.w3.org/1999/xlink" x="0px" y="0px"
	 width="64px" height="64px" viewBox="0 0 64 64" enable-background="new 0 0 64 64" xml:space="preserve">
<g id="close">
	<rect opacity="0" fill="#FFFFFF" width="64" height="64"/>
	<path fill="#FF423C" d="M39.071,32l15.512-15.512c1.953-1.953,1.953-5.119,0-7.071c-1.951-1.952-5.119-1.952-7.07,0L32,24.929
		L16.488,9.417c-1.952-1.951-5.117-1.952-7.071,0c-1.953,1.953-1.953,5.119,0,7.071L24.929,32L9.417,47.513
		c-1.953,1.952-1.953,5.118,0,7.07c0.977,0.977,2.256,1.465,3.536,1.465s2.559-0.488,3.536-1.465L32,39.071l15.513,15.512
		c0.976,0.977,2.256,1.465,3.535,1.465s2.56-0.488,3.535-1.465c1.953-1.952,1.953-5.118,0-7.07L39.071,32z"/>
</g>
</svg>
