<?xml version="1.0" encoding="utf-8"?>
<!-- Generator: Adobe Illustrator 16.0.0, SVG Export Plug-In . SVG Version: 6.00 Build 0)  -->
<!DOCTYPE svg PUBLIC "-//W3C//DTD SVG 1.1//EN" "http://www.w3.org/Graphics/SVG/1.1/DTD/svg11.dtd">
<svg version="1.1" id="Слой_1" xmlns="http://www.w3.org/2000/svg" xmlns:xlink="http://www.w3.org/1999/xlink" x="0px" y="0px"
	 width="64px" height="64px" viewBox="0 0 64 64" enable-background="new 0 0 64 64" xml:space="preserve">
<rect opacity="0" fill="inherit" width="64" height="64"/>
<path fill="#3FB1FF" d="M6.414,27.458c0-0.556,0.453-1.009,1.009-1.009h22.488c0.556,0,1.008,0.454,1.008,1.009
	c0,0.557-0.452,1.009-1.008,1.009H7.423C6.867,28.467,6.414,28.015,6.414,27.458z M62.035,36.015v7.254
	c0,1.005-0.817,1.823-1.821,1.823h-1.507c-0.483,2.801-2.91,4.869-5.793,4.869c-2.871,0-5.306-2.072-5.791-4.869H26.264
	c-0.486,2.789-2.937,4.865-5.789,4.865c-2.847,0-5.295-2.072-5.786-4.855h-3.932c-0.551,0-1-0.449-1-1v-4.995H2.994
	c-0.556,0-1.009-0.452-1.009-1.009c0-0.556,0.453-1.009,1.009-1.009H25.48c0.557,0,1.009,0.453,1.009,1.009
	c0,0.557-0.453,1.009-1.009,1.009H11.757v3.962h4.988l-0.055,0.3c-0.046,0.243-0.069,0.482-0.069,0.71
	c0,2.127,1.729,3.856,3.854,3.856c2.124,0,3.852-1.728,3.854-3.86c0-0.226-0.023-0.463-0.068-0.706l-0.056-0.3h22.917
	c0.484-2.798,2.919-4.869,5.791-4.869c2.884,0,5.311,2.068,5.793,4.869h1.306c0,0-0.002-7.151-0.006-7.201h-1.72
	c-0.558,0-1.012-0.453-1.012-1.01c0-0.559,0.454-1.013,1.012-1.013h0.603l-0.999-1.222H45.102c-1.452,0-2.634-1.18-2.634-2.632
	v-6.487c0-1.453,1.182-2.633,2.634-2.633h3.172l-1.656-2.025c-0.426-0.52-1.056-0.818-1.728-0.818H12.408
	c-0.556,0-1.009-0.454-1.009-1.014c0-0.556,0.453-1.009,1.009-1.009H44.89c1.281,0,2.482,0.568,3.293,1.561l12.892,15.754
	C61.693,34.078,62.035,35.035,62.035,36.015z M44.49,29.991c0,0.337,0.274,0.611,0.611,0.611h11.134l-6.308-7.709h-4.826
	c-0.337,0-0.611,0.275-0.611,0.611V29.991z M52.914,40.199c-2.139,0-3.88,1.74-3.88,3.881c0,2.139,1.741,3.881,3.88,3.881
	c2.141,0,3.881-1.742,3.881-3.881C56.795,41.939,55.055,40.199,52.914,40.199z"/>
</svg>
