<?xml version="1.0" encoding="utf-8"?>
<!-- Generator: Adobe Illustrator 16.0.0, SVG Export Plug-In . SVG Version: 6.00 Build 0)  -->
<!DOCTYPE svg PUBLIC "-//W3C//DTD SVG 1.1//EN" "http://www.w3.org/Graphics/SVG/1.1/DTD/svg11.dtd">
<svg version="1.1" id="Capa_1" xmlns="http://www.w3.org/2000/svg" xmlns:xlink="http://www.w3.org/1999/xlink" x="0px" y="0px"
	 width="82px" height="82px" viewBox="0 0 82 82" enable-background="new 0 0 82 82" xml:space="preserve">
<rect fill="#FFFFFF" fill-opacity="0" width="82" height="82"/>
<path fill="#666666" d="M67.014,51.239c1.166-1.487,1.725-3.085,1.653-4.729c-0.071-1.811-0.881-3.228-1.548-4.097
	c0.773-1.929,1.072-4.965-1.512-7.322c-1.896-1.727-5.108-2.5-9.563-2.285c-3.132,0.143-7.096,0.986-7.739,1.131
	c-0.048-0.763,0.084-2.655,1.487-6.918c1.668-5.072,1.572-8.953-0.311-11.549c-1.977-2.729-5.131-2.941-6.061-2.941
	c-0.896,0-1.714,0.369-2.298,1.048c-1.322,1.536-1.167,4.369-1,5.68c-1.572,4.216-5.977,14.551-9.704,17.419
	c-0.072,0.049-0.131,0.106-0.19,0.167c-1.093,1.157-1.832,2.407-2.332,3.503c-0.703-0.382-1.5-0.596-2.357-0.596H18.28
	c-2.738,0-4.953,2.227-4.953,4.953v19.349c0,2.737,2.226,4.954,4.953,4.954h7.263c1.059,0,2.047-0.334,2.857-0.904l2.798,0.334
	c0.429,0.059,8.049,1.021,15.869,0.867c1.416,0.107,2.75,0.168,3.989,0.168c2.131,0,3.987-0.168,5.535-0.501
	c3.646-0.772,6.133-2.321,7.395-4.597c0.966-1.737,0.966-3.465,0.811-4.56c2.37-2.146,2.787-4.514,2.704-6.181
	C67.452,52.669,67.238,51.848,67.014,51.239z M18.28,65.791c-0.964,0-1.738-0.786-1.738-1.739V44.688
	c0-0.965,0.785-1.736,1.738-1.736h7.263c0.964,0,1.738,0.785,1.738,1.736v19.351c0,0.966-0.786,1.74-1.738,1.74H18.28V65.791z
	 M63.964,49.846c-0.499,0.524-0.595,1.323-0.214,1.941c0,0.014,0.488,0.848,0.547,1.989c0.083,1.56-0.665,2.939-2.238,4.119
	c-0.559,0.429-0.785,1.168-0.547,1.834c0,0.012,0.512,1.582-0.322,3.071c-0.797,1.429-2.569,2.451-5.263,3.023
	c-2.153,0.465-8.786,0.262-8.845,0.262c-7.657,0.167-15.396-0.834-15.479-0.846h-0.012l-1.112-0.123
	c0-2.057,0.037-19.825,0.037-21.7c0.214-0.798,0.562-2.776,1.967-4.289c5.346-4.237,10.572-18.538,10.799-19.156
	c0.097-0.25,0.117-0.523,0.07-0.798c-0.203-1.333-0.131-2.964,0.153-3.451c0.632,0.012,2.333,0.188,3.357,1.605
	c1.216,1.68,1.166,4.68-0.145,8.656c-2,6.061-2.166,9.251-0.582,10.656c0.786,0.703,1.832,0.738,2.596,0.464
	c0.727-0.167,2.179-0.44,2.229-0.452c3.652-0.798,10.202-1.287,12.477,0.785c1.931,1.763,0.562,4.095,0.404,4.345
	c-0.439,0.667-0.309,1.535,0.286,2.072c0.013,0.012,1.263,1.19,1.322,2.773C65.5,47.689,65.001,48.775,63.964,49.846z"/>
</svg>
