<?xml version="1.0" encoding="utf-8"?>
<!-- Generator: Adobe Illustrator 16.0.0, SVG Export Plug-In . SVG Version: 6.00 Build 0)  -->
<!DOCTYPE svg PUBLIC "-//W3C//DTD SVG 1.1//EN" "http://www.w3.org/Graphics/SVG/1.1/DTD/svg11.dtd">
<svg version="1.1" id="Слой_1" xmlns="http://www.w3.org/2000/svg" xmlns:xlink="http://www.w3.org/1999/xlink" x="0px" y="0px"
	 width="64px" height="64px" viewBox="0 0 64 64" enable-background="new 0 0 64 64" xml:space="preserve">
<rect opacity="0" fill="#201600" width="64" height="64"/>
<g>
	<g>
		<path fill="#0079BF" d="M31.999,9.806c9.128,0,16.554,7.428,16.554,16.56c0,13.604-14.906,26.887-15.539,27.446
			c-0.289,0.257-0.651,0.383-1.015,0.383c-0.36,0-0.723-0.126-1.011-0.383c-0.636-0.559-15.541-13.842-15.541-27.446
			C15.447,17.234,22.874,9.806,31.999,9.806 M31.999,7.806c-10.229,0-18.552,8.326-18.552,18.56
			c0,14.529,15.559,28.367,16.221,28.948c0.633,0.564,1.465,0.881,2.331,0.881c0.867,0,1.699-0.315,2.343-0.888
			c1.655-1.461,16.211-14.72,16.211-28.941C50.553,16.132,42.229,7.806,31.999,7.806L31.999,7.806z"/>
	</g>
	<g>
		<path fill="#0079BF" d="M31.999,21.784c2.523,0,4.568,2.044,4.568,4.568c0,2.521-2.045,4.567-4.568,4.567
			c-2.521,0-4.566-2.046-4.566-4.567C27.433,23.829,29.478,21.784,31.999,21.784 M31.999,19.784c-3.621,0-6.566,2.946-6.566,6.568
			c0,3.621,2.946,6.567,6.566,6.567c3.622,0,6.568-2.946,6.568-6.567C38.567,22.73,35.621,19.784,31.999,19.784L31.999,19.784z"/>
	</g>
</g>
</svg>
