<?xml version="1.0" encoding="utf-8"?>
<!-- Generator: Adobe Illustrator 16.0.0, SVG Export Plug-In . SVG Version: 6.00 Build 0)  -->
<!DOCTYPE svg PUBLIC "-//W3C//DTD SVG 1.1//EN" "http://www.w3.org/Graphics/SVG/1.1/DTD/svg11.dtd">
<svg version="1.1" id="Слой_1" xmlns="http://www.w3.org/2000/svg" xmlns:xlink="http://www.w3.org/1999/xlink" x="0px" y="0px"
	 width="64px" height="64px" viewBox="0 0 64 64" enable-background="new 0 0 64 64" xml:space="preserve">
<rect opacity="0" fill="#201600" width="64" height="64"/>
<path fill="#D5D5D5" d="M53.617,49.705l-9.885-9.675c2.581-2.919,4.157-6.72,4.157-10.884c0-9.164-7.579-16.62-16.896-16.62
	c-9.316,0-16.896,7.456-16.896,16.62s7.58,16.619,16.896,16.619c3.63,0,6.989-1.144,9.746-3.067l10.079,9.865
	c0.39,0.381,0.895,0.571,1.399,0.571c0.519,0,1.038-0.201,1.429-0.602C54.42,51.744,54.406,50.478,53.617,49.705z M17.147,29.146
	c0-7.502,6.211-13.605,13.846-13.605c7.635,0,13.846,6.103,13.846,13.605s-6.211,13.604-13.846,13.604
	C23.359,42.751,17.147,36.648,17.147,29.146z M37,30h-5v5h-2v-5h-5v-2h5v-5h2v5h5V30z"/>
</svg>
