<?xml version="1.0" encoding="utf-8"?>
<!-- Generator: Adobe Illustrator 16.0.0, SVG Export Plug-In . SVG Version: 6.00 Build 0)  -->
<!DOCTYPE svg PUBLIC "-//W3C//DTD SVG 1.1//EN" "http://www.w3.org/Graphics/SVG/1.1/DTD/svg11.dtd">
<svg version="1.1" id="Слой_1" xmlns="http://www.w3.org/2000/svg" xmlns:xlink="http://www.w3.org/1999/xlink" x="0px" y="0px"
	 width="64px" height="64px" viewBox="0 0 64 64" enable-background="new 0 0 64 64" xml:space="preserve">
<rect y="0.001" opacity="0" fill="#201600" fill-opacity="0" width="64" height="63.994"/>
<path fill="#00B3FF" d="M32,1.998c16.57,0,30.003,13.433,30.003,30.003c0,16.563-13.433,29.996-30.003,29.996
	c-16.57,0-30.003-13.433-30.003-29.996C1.997,15.431,15.43,1.998,32,1.998z"/>
<path fill="#FFFFFF" d="M47.464,35.616l-14.766-7.794v-0.986c0.006,0,0.013-0.002,0.021-0.004c2.327-0.576,3.887-2.025,3.887-3.888
	c0-2.147-1.739-3.888-3.887-3.888c-1.984,0-3.706,1.451-3.877,3.396c-0.006,0.029-0.008,0.06-0.008,0.091
	c0,0.003-0.002,0.006-0.002,0.011c0,0.386,0.313,0.699,0.701,0.699c0.386,0,0.7-0.313,0.7-0.699h0.004
	c0.056-0.605,0.351-1.039,0.608-1.311c0.476-0.502,1.16-0.788,1.873-0.788c1.373,0,2.487,1.115,2.487,2.488
	c0,0.524-0.219,1.004-0.648,1.427c-0.506,0.494-1.255,0.876-2.174,1.103c0,0-1.063,0.328-1.081,0.334l-0.001,2.014l-14.763,7.794
	c-0.791,0.406-1.326,1.172-1.326,2.051c0,1.309,1.183,2.369,2.638,2.369c0.027,0,28.275,0,28.302,0c1.455,0,2.639-1.061,2.639-2.369
	C48.789,36.788,48.257,36.021,47.464,35.616z M46.152,38.634H17.85c-0.671,0-1.238-0.44-1.238-0.967
	c0-0.326,0.214-0.627,0.567-0.812l0.007-0.002l0.006-0.004L32,29.035l14.809,7.816l0.01,0.004l0.006,0.002
	c0.354,0.186,0.566,0.485,0.566,0.811C47.391,38.191,46.823,38.634,46.152,38.634z"/>
</svg>
