<svg version="1.1" id="" xmlns="http://www.w3.org/2000/svg" xmlns:xlink="http://www.w3.org/1999/xlink" width="64px" height="64px" viewBox="0 0 64 64" enable-background="new 0 0 64 64" xml:space="preserve">
	<path fill="#00B3FF" d="M32.001,13.042l5.511,11.164l0.931,1.885l2.08,0.303l12.314,1.792l-8.913,8.689l-1.506,1.468l0.355,2.072
		l2.102,12.265l-11.012-5.794l-1.862-0.979l-1.862,0.979L19.125,52.68l2.102-12.265l0.355-2.072l-1.506-1.468l-8.913-8.689
		l12.315-1.792l2.08-0.303l0.931-1.885L32.001,13.042 M32.001,4.005l-9.098,18.43L2.57,25.394l14.715,14.345l-3.472,20.255
		l18.188-9.568l18.187,9.568l-3.472-20.255l14.715-14.345l-20.332-2.959L32.001,4.005L32.001,4.005z"/>
</svg>
