<svg xmlns="http://www.w3.org/2000/svg" xml:space="preserve" width="16.9332mm" height="16.9332mm" version="1.1" style="shape-rendering:geometricPrecision; text-rendering:geometricPrecision; image-rendering:optimizeQuality; fill-rule:evenodd; clip-rule:evenodd" viewBox="0 0 218 218" xmlns:xlink="http://www.w3.org/1999/xlink">
  <rect fill="#e5322d" transform="matrix(0.912541 0.577479 -0.735019 1.16149 149.172 33.1103)" width="11.905" height="124.498"/>
  <path fill="#e5322d" d="M71 34c17,0 32,15 32,33 0,17 -15,32 -32,32 -18,0 -33,-15 -33,-32 0,-18 15,-33 33,-33zm0 13c10,0 19,9 19,20 0,10 -9,19 -19,19 -11,0 -20,-9 -20,-19 0,-11 9,-20 20,-20z"/>
  <path fill="#e5322d" d="M147 119c18,0 32,14 32,32 0,18 -14,32 -32,32 -18,0 -32,-14 -32,-32 0,-18 14,-32 32,-32zm0 13c11,0 19,8 19,19 0,11 -8,19 -19,19 -10,0 -19,-8 -19,-19 0,-11 9,-19 19,-19z"/>
</svg>