<svg version="1.1" id="Слой_1" xmlns="http://www.w3.org/2000/svg" xmlns:xlink="http://www.w3.org/1999/xlink" x="0px" y="0px" width="64px" height="64px" viewBox="0 0 64 64" enable-background="new 0 0 64 64" xml:space="preserve">
<path fill="" d="M27.186,22.916c0-0.399,0.324-0.724,0.725-0.724h1.447c0.399,0,0.725,0.325,0.725,0.724
	c0,0.4-0.325,0.724-0.725,0.724v1.448c0,1.6,1.297,2.896,2.896,2.896c1.598,0,2.896-1.298,2.896-2.896V23.64
	c-0.4,0-0.724-0.324-0.724-0.724c0-0.399,0.323-0.724,0.724-0.724h1.447c0.399,0,0.725,0.325,0.725,0.724
	c0,0.4-0.325,0.724-0.725,0.724v1.448c0,2.396-1.948,4.343-4.344,4.343c-2.398,0-4.343-1.943-4.343-4.343V23.64
	C27.51,23.64,27.186,23.315,27.186,22.916z M9.538,44.615c-0.15-0.147-0.233-0.349-0.233-0.559s0.085-0.41,0.233-0.559l2.436-2.422
	c0.744-0.745,1.748-1.124,2.776-1.07c1.306-2.773,3.729-4.669,6.783-5.312V17.017c0-0.435,0.354-0.789,0.789-0.789H42.6
	c0.434,0,0.788,0.354,0.788,0.789v15.407l0.763-0.791c1.128-1.308,3.106-1.467,4.43-0.354c1.329,1.126,1.499,3.12,0.375,4.449
	l-7.068,8.486c-0.019,0.021-0.036,0.043-0.055,0.063c-1.334,1.296-3.092,2.013-4.952,2.013H26.491c-0.955,0-1.862,0.365-2.552,1.029
	l-0.868,0.839c0.109,1.092-0.271,2.173-1.061,2.96l-2.421,2.423c-0.155,0.154-0.356,0.23-0.559,0.23s-0.404-0.076-0.558-0.23
	L9.538,44.615z M23.111,17.807V34.48c0.263-0.017,0.525-0.025,0.789-0.025c1.338,0,2.64,0.253,3.867,0.754
	c0.057,0.022,0.112,0.035,0.16,0.035h9.148c0.968,0,1.863,0.449,2.451,1.172l2.282-2.362V17.807H23.111z M16.296,40.433
	c0.318,0.17,0.611,0.385,0.87,0.645l4.845,4.847c0.184,0.183,0.347,0.381,0.485,0.596l0.35-0.336
	c0.984-0.95,2.278-1.472,3.646-1.472H36.88c1.434,0,2.789-0.547,3.822-1.537l7.043-8.46c0.565-0.67,0.481-1.666-0.183-2.229
	c-0.665-0.56-1.663-0.475-2.225,0.188c-0.012,0.012-0.022,0.026-0.035,0.038c-0.165,0.171-4.935,5.104-5.099,5.272
	c0.018,0.137,0.028,0.275,0.028,0.415c0,1.738-1.417,3.156-3.156,3.156h-6.864c-0.436,0-0.788-0.354-0.788-0.789
	c0-0.437,0.353-0.79,0.788-0.79h6.864c0.869,0,1.578-0.708,1.578-1.577c0-0.88-0.722-1.577-1.578-1.577h-9.148
	c-0.252,0-0.506-0.052-0.752-0.152c-1.549-0.629-3.144-0.765-4.738-0.535C19.655,36.54,17.501,38.056,16.296,40.433z M11.212,44.06
	l7.819,7.808l1.866-1.865c0.825-0.826,0.812-2.152,0.001-2.963l-4.848-4.847c-0.811-0.809-2.134-0.831-2.963,0L11.212,44.06z"/>
</svg>
