<?xml version="1.0" encoding="utf-8"?>
<!-- Generator: Adobe Illustrator 16.0.0, SVG Export Plug-In . SVG Version: 6.00 Build 0)  -->
<!DOCTYPE svg PUBLIC "-//W3C//DTD SVG 1.1//EN" "http://www.w3.org/Graphics/SVG/1.1/DTD/svg11.dtd">
<svg version="1.1" id="Слой_1" xmlns="http://www.w3.org/2000/svg" xmlns:xlink="http://www.w3.org/1999/xlink" x="0px" y="0px"
	 width="64px" height="64px" viewBox="0 0 64 64" enable-background="new 0 0 64 64" xml:space="preserve">
<rect opacity="0" fill="#201600" width="64" height="64"/>
<path fill="#0079BF" d="M51.816,48.904L41.788,39.09c2.546-2.883,4.101-6.635,4.101-10.744c0-9.054-7.49-16.419-16.696-16.419
	c-9.206,0-16.696,7.366-16.696,16.419c0,9.053,7.49,16.418,16.696,16.418c3.574,0,6.881-1.119,9.601-3.008l10.224,10.007
	c0.39,0.381,0.895,0.571,1.399,0.571c0.519,0,1.038-0.201,1.429-0.602C52.619,50.943,52.605,49.677,51.816,48.904z M15.146,28.346
	c0-7.612,6.301-13.805,14.046-13.805c7.746,0,14.047,6.193,14.047,13.805c0,7.611-6.302,13.805-14.047,13.805
	C21.448,42.15,15.146,35.957,15.146,28.346z"/>
</svg>
