<?xml version="1.0" encoding="UTF-8"?>
<!DOCTYPE svg PUBLIC "-//W3C//DTD SVG 1.1//EN" "http://www.w3.org/Graphics/SVG/1.1/DTD/svg11.dtd">
<!-- Creator: CorelDRAW X7 -->
<svg xmlns="http://www.w3.org/2000/svg" xml:space="preserve" width="16.9332mm" height="16.9332mm" version="1.1" style="shape-rendering:geometricPrecision; text-rendering:geometricPrecision; image-rendering:optimizeQuality; fill-rule:evenodd; clip-rule:evenodd"
viewBox="0 0 683 683"
 xmlns:xlink="http://www.w3.org/1999/xlink">
 <defs>
  <style type="text/css">
   <![CDATA[
    .fil0 {fill:none}
    .fil1 {fill:#00B3FF}
   ]]>
  </style>
 </defs>
 <g id="Слой_x0020_1">
  <metadata id="CorelCorpID_0Corel-Layer"/>
  <g id="_709228584">
   <rect class="fil0" width="683" height="683"/>
   <path class="fil1" d="M209 556l278 0c3,0 6,0 9,0 70,0 127,-54 127,-121 0,-56 -39,-103 -93,-117 3,-12 5,-24 5,-36 0,-86 -73,-155 -163,-155 -87,0 -158,64 -163,145 -83,0 -150,64 -150,142 0,79 67,142 150,142zm282 -248c2,-8 4,-17 4,-26 0,-67 -59,-115 -123,-115 -62,0 -119,44 -123,108l-2 38 -38 0c-57,0 -109,42 -109,101 0,59 52,102 109,102l279 0 1 0c2,0 5,0 7,0 45,0 87,-34 87,-81 0,-38 -27,-68 -63,-78l-39 -10 10 -39z"/>
  </g>
 </g>
</svg>
