<?xml version="1.0" encoding="utf-8"?>
<!-- Generator: Adobe Illustrator 16.0.0, SVG Export Plug-In . SVG Version: 6.00 Build 0)  -->
<!DOCTYPE svg PUBLIC "-//W3C//DTD SVG 1.1//EN" "http://www.w3.org/Graphics/SVG/1.1/DTD/svg11.dtd">
<svg version="1.1" id="Слой_1" xmlns="http://www.w3.org/2000/svg" xmlns:xlink="http://www.w3.org/1999/xlink" x="0px" y="0px"
	 width="64px" height="64px" viewBox="0 0 64 64" enable-background="new 0 0 64 64" xml:space="preserve">
<rect opacity="0" fill="#201600" width="64" height="64"/>
<path fill="#728084" d="M32,59.957c15.451,0,27.957-12.555,27.957-27.957C59.957,16.549,47.402,4.043,32,4.043
	C16.597,4.043,4.043,16.549,4.043,32C4.043,47.402,16.549,59.957,32,59.957z M32,7.955c13.278,0,24.044,10.767,24.044,24.045
	S45.278,56.045,32,56.045C18.722,56.045,7.954,45.23,7.954,32C7.954,18.722,18.722,7.955,32,7.955z M30.696,35.283
	c-1.11,0-1.979-0.869-1.979-1.979V19.832c0-1.11,0.869-1.979,1.979-1.979c1.111,0,1.979,0.869,1.979,1.979v11.492h7.34
	c1.11,0,1.979,0.869,1.979,1.979s-0.869,1.979-1.979,1.979H30.696L30.696,35.283z"/>
</svg>
