<svg version="1.1" id="" xmlns="http://www.w3.org/2000/svg" xmlns:xlink="http://www.w3.org/1999/xlink" width="64px" height="64px" viewBox="0 0 64 64" enable-background="new 0 0 64 64" xml:space="preserve">
	<path fill="#0079BF" d="M50.705,48.271c-0.002,1.996-1.623,3.622-3.61,3.625h-30.19c-1.987-0.003-3.607-1.629-3.61-3.626
		c0-5.856,4.745-10.621,10.578-10.621c0.71,0,1.289,0.58,1.289,1.293s-0.578,1.293-1.289,1.293c-4.412,0-8.001,3.605-8.001,8.035
		c0,0.573,0.464,1.039,1.034,1.039h30.189c0.569,0,1.034-0.466,1.034-1.039c0-4.43-3.59-8.035-8.001-8.035
		c-0.711,0-1.29-0.58-1.29-1.293s0.579-1.293,1.29-1.293C45.961,37.648,50.705,42.413,50.705,48.271z M42.416,24.922
		c0,7.033-4.673,12.754-10.416,12.754s-10.416-5.721-10.416-12.752c0-3.355,1.05-6.521,2.957-8.913
		c1.972-2.478,4.62-3.842,7.458-3.842C37.743,12.168,42.416,17.89,42.416,24.922z M39.87,24.924c0-5.625-3.53-10.201-7.87-10.201
		c-4.34,0-7.872,4.576-7.872,10.201c0.001,5.625,3.532,10.201,7.872,10.201C36.34,35.125,39.87,30.549,39.87,24.924z"/>
</svg>
