<?xml version="1.0" encoding="UTF-8" standalone="no"?>
<svg
   xmlns:svg="http://www.w3.org/2000/svg"
   xmlns="http://www.w3.org/2000/svg"
   id="svg19"
   version="1.1"
   height="180"
   width="800">
  <title
     id="title4502">Yandex.Money logo</title>
  <g
     transform="matrix(4.7277498,0,0,4.7277498,-68.357307,-159.14225)"
     id="surface350">
    <path
       id="path2"
       d="m 29.894531,41.292969 h -1.476562 c -0.550781,0 -1.089844,0.101562 -1.621094,0.304687 -0.527344,0.207032 -0.996094,0.53125 -1.402344,0.976563 -0.410156,0.445312 -0.738281,1.035156 -0.988281,1.769531 -0.253906,0.734375 -0.378906,1.644531 -0.378906,2.726563 0,1.035156 0.113281,1.902343 0.339844,2.601562 0.230468,0.699219 0.542968,1.265625 0.9375,1.695313 0.394531,0.433593 0.863281,0.742187 1.402343,0.921875 0.542969,0.179687 1.113282,0.269531 1.710938,0.269531 h 1.476562 z m -2.304687,13.570312 -4.390625,9.863282 h -3.203125 l 4.824219,-10.546875 c -1.128907,-0.574219 -2.042969,-1.421875 -2.738282,-2.539063 -0.695312,-1.113281 -1.042968,-2.632812 -1.042968,-4.550781 0,-1.347656 0.199218,-2.527344 0.59375,-3.546875 0.394531,-1.019531 0.9375,-1.867188 1.621093,-2.539063 0.683594,-0.671875 1.480469,-1.175781 2.394532,-1.511718 0.910156,-0.335938 1.871093,-0.503907 2.878906,-0.503907 h 4.140625 v 25.738282 h -2.773438 v -9.863282 z m 0,0"
       style="fill:#ff0000;fill-opacity:1;fill-rule:nonzero;stroke:none" />
    <path
       id="path4"
       d="m 92.75,64.980469 c -1.945312,0 -3.46875,-0.773438 -4.570312,-2.324219 -1.105469,-1.546875 -1.65625,-3.878906 -1.65625,-7 0,-1.417969 0.136718,-2.699219 0.414062,-3.851562 0.273438,-1.152344 0.683594,-2.128907 1.222656,-2.933594 0.539063,-0.804688 1.210938,-1.429688 2.015625,-1.875 0.804688,-0.441406 1.734375,-0.664063 2.789063,-0.664063 0.816406,0 1.476562,0.08984 1.980469,0.269532 0.503906,0.179687 0.960937,0.402343 1.371093,0.667968 l -0.398437,2.664063 c -0.382813,-0.347656 -0.835938,-0.648438 -1.347656,-0.910156 -0.519532,-0.257813 -1.0625,-0.386719 -1.640625,-0.386719 -1.007813,0 -1.835938,0.566406 -2.484375,1.699219 -0.648438,1.136718 -0.972657,2.859375 -0.972657,5.175781 0,2.292969 0.273438,4.058594 0.8125,5.300781 0.539063,1.242188 1.386719,1.863281 2.539063,1.863281 0.695312,0 1.292969,-0.117187 1.796875,-0.351562 0.503906,-0.234375 0.925781,-0.503906 1.261719,-0.800781 l 0.648437,2.089843 c -0.480469,0.40625 -1.023437,0.738282 -1.621094,0.988282 C 94.3125,64.855469 93.589844,64.980469 92.75,64.980469 M 78.316406,55.691406 v 9.035157 H 75.507813 V 46.585938 h 2.808593 v 8.386718 l 4.355469,-8.386718 h 2.84375 l -4.5,8.53125 5.148438,9.609375 h -3.0625 z M 67.621094,48.636719 c -0.863281,0 -1.472656,0.484375 -1.835938,1.457031 C 65.425781,51.066406 65.199219,52.367188 65.101563,54 h 4.644531 c 0,-0.769531 -0.03516,-1.480469 -0.109375,-2.140625 -0.07031,-0.660156 -0.183594,-1.230469 -0.339844,-1.710937 -0.15625,-0.480469 -0.375,-0.851563 -0.648437,-1.117188 -0.277344,-0.261719 -0.617188,-0.394531 -1.027344,-0.394531 m 5.042969,14.867187 c -0.578125,0.457032 -1.238282,0.816407 -1.980469,1.082032 -0.746094,0.261718 -1.574219,0.394531 -2.484375,0.394531 -1.871094,0 -3.347656,-0.726563 -4.429688,-2.179688 -1.078125,-1.449218 -1.617187,-3.582031 -1.617187,-6.390625 0,-1.460937 0.09766,-2.804687 0.304687,-4.03125 0.203125,-1.222656 0.527344,-2.285156 0.972657,-3.183593 0.441406,-0.902344 1.011718,-1.601563 1.707031,-2.105469 0.695312,-0.503906 1.527344,-0.757813 2.484375,-0.757813 0.746094,0 1.429687,0.148438 2.054687,0.449219 0.621094,0.300781 1.152344,0.785156 1.582032,1.457031 0.433593,0.671875 0.769531,1.542969 1.007812,2.613282 0.238281,1.066406 0.359375,2.367187 0.359375,3.90625 v 1.546875 h -7.558594 c 0,2.0625 0.28125,3.625 0.847657,4.679687 0.5625,1.054688 1.40625,1.582031 2.535156,1.582031 0.792969,0 1.496094,-0.136718 2.105469,-0.414062 0.613281,-0.273438 1.101562,-0.542969 1.460937,-0.808594 z M 56.246094,48.886719 h -3.132813 v 0.324219 c 0,0.957031 -0.01563,2.003906 -0.05078,3.140625 -0.03906,1.136718 -0.117187,2.292968 -0.234375,3.464843 -0.121094,1.175782 -0.289062,2.328125 -0.503906,3.464844 -0.21875,1.140625 -0.519531,2.1875 -0.902344,3.144531 h 4.824219 z m 4.210937,19.40625 H 57.9375 v -3.566406 h -7.773437 v 3.566406 h -2.519532 v -5.867188 h 1.113282 c 0.410156,-0.960937 0.734375,-2.023437 0.972656,-3.1875 0.238281,-1.164062 0.425781,-2.363281 0.558594,-3.601562 0.128906,-1.234375 0.214843,-2.496094 0.25,-3.777344 0.03906,-1.285156 0.05469,-2.527344 0.05469,-3.726562 v -1.546875 h 8.425781 v 15.839843 h 1.4375 z M 46.023438,46.585938 V 64.726563 H 43.25 V 56.59375 h -4.175781 v 8.132813 H 36.265625 V 46.585938 h 2.808594 v 7.703125 H 43.25 v -7.703125 z m 0,0"
       style="fill:#000000;fill-opacity:1;fill-rule:nonzero;stroke:none" />
    <path
       id="path6"
       d="m 113.70313,40.429688 h -5.58204 c -0.0469,3.296875 -0.12109,6.191406 -0.21484,8.683593 -0.0977,2.492188 -0.21484,4.675782 -0.35937,6.554688 -0.16797,1.949219 -0.40235,3.558594 -0.70313,4.820312 -0.30078,1.265625 -0.69141,2.199219 -1.17187,2.800782 h 8.03125 z m 1.90625,24.296875 h -11.01563 l -0.25,4.285156 h -1.40625 v -5.722656 h 0.75781 c 0.6211,-0.53125 1.10157,-1.46875 1.4375,-2.8125 0.33594,-1.347657 0.60157,-2.945313 0.79297,-4.796875 0.19141,-1.921875 0.32422,-4.285157 0.39453,-7.082032 0.0742,-2.800781 0.13282,-6.003906 0.17969,-9.609375 h 9 v 24.300782 h 1.76563 v 5.722656 h -1.40235 z m 0,0"
       style="fill:#000000;fill-opacity:1;fill-rule:nonzero;stroke:none" />
    <path
       id="path8"
       d="m 124.35938,47.664063 c -0.96094,0 -1.78516,0.589843 -2.46875,1.773437 -0.6836,1.179688 -1.0625,2.90625 -1.13282,5.175781 h 6.58594 c 0.14453,-2.414062 -0.0898,-4.171875 -0.69922,-5.28125 -0.61328,-1.113281 -1.375,-1.667968 -2.28515,-1.667968 m -3.63672,8.28125 c 0.0469,2.507812 0.39453,4.417968 1.04297,5.730468 0.64843,1.316407 1.63281,1.972657 2.95312,1.972657 0.59766,0 1.125,-0.09766 1.58203,-0.292969 0.45703,-0.195313 0.83985,-0.429688 1.15235,-0.699219 0.35937,-0.265625 0.67187,-0.597656 0.93749,-0.988281 l 0.53907,1.367187 c -0.28907,0.410157 -0.63672,0.757813 -1.04297,1.046875 -0.35938,0.261719 -0.80469,0.496094 -1.33203,0.699219 -0.52735,0.203125 -1.15235,0.308594 -1.875,0.308594 -1.91797,0 -3.33594,-0.828125 -4.2461,-2.484375 -0.91015,-1.65625 -1.36718,-3.972656 -1.36718,-6.949219 0,-1.488281 0.1289,-2.8125 0.39453,-3.976562 0.26562,-1.164063 0.6289,-2.15625 1.09765,-2.972657 0.46875,-0.8125 1.02735,-1.433593 1.67579,-1.851562 0.64843,-0.421875 1.35546,-0.632813 2.125,-0.632813 0.78906,0 1.5,0.207032 2.12109,0.613282 0.625,0.410156 1.14062,1.019531 1.55078,1.835937 0.40625,0.816406 0.69531,1.832031 0.86328,3.042969 0.16797,1.210937 0.17969,2.621094 0.0352,4.230469 z m 0,0"
       style="fill:#000000;fill-opacity:1;fill-rule:nonzero;stroke:none" />
    <path
       id="path10"
       d="m 140.01562,56.050781 h -6.1914 v 8.675782 h -1.69141 V 46.585938 h 1.69141 v 8.027343 h 6.1914 v -8.027343 h 1.69532 v 18.140625 h -1.69532 z m 0,0"
       style="fill:#000000;fill-opacity:1;fill-rule:nonzero;stroke:none" />
    <path
       id="path12"
       d="m 147.39844,54.648438 v 8.746093 h 1.07812 c 1.27344,0 2.30469,-0.339843 3.09766,-1.023437 0.78906,-0.683594 1.1875,-1.804688 1.1875,-3.367188 0,-1.535156 -0.35938,-2.644531 -1.08203,-3.328125 -0.71875,-0.6875 -1.72657,-1.027343 -3.02344,-1.027343 z m -1.69532,-8.066407 h 1.69532 v 6.734375 h 1.33203 c 1.72656,0 3.10547,0.46875 4.13672,1.402344 1.03515,0.9375 1.55078,2.351563 1.55078,4.25 0,1.917969 -0.54297,3.359375 -1.6211,4.320313 -1.08203,0.957031 -2.47265,1.4375 -4.17578,1.4375 h -2.91797 z m 0,0"
       style="fill:#000000;fill-opacity:1;fill-rule:nonzero;stroke:none" />
    <path
       id="path14"
       d="m 158.98828,48.023438 v 16.703125 h -1.65625 V 46.582031 H 165 v 1.441407 z m 0,0"
       style="fill:#000000;fill-opacity:1;fill-rule:nonzero;stroke:none" />
    <path
       id="path16"
       d="m 176.05078,52.09375 c 0,-0.480469 0.0117,-0.921875 0.0352,-1.316406 0.0273,-0.394531 0.0625,-0.785156 0.10937,-1.167969 h -0.10937 c -0.11719,0.40625 -0.26172,0.796875 -0.42969,1.167969 -0.16797,0.375 -0.34766,0.761719 -0.53906,1.171875 l -5.90625,12.777344 h -1.4375 V 46.582031 h 1.58203 v 12.601563 c 0,0.480469 -0.0117,0.925781 -0.0352,1.332031 -0.0234,0.410156 -0.0586,0.816406 -0.10937,1.222656 h 0.10937 c 0.1211,-0.40625 0.26172,-0.808593 0.42969,-1.203125 0.16797,-0.398437 0.34766,-0.796875 0.54297,-1.207031 l 5.90234,-12.746094 h 1.47656 v 18.144532 h -1.62109 z m 0,0"
       style="fill:#000000;fill-opacity:1;fill-rule:nonzero;stroke:none" />
  </g>
</svg>