<?xml version="1.0" encoding="utf-8"?>
<!-- Generator: Adobe Illustrator 16.0.0, SVG Export Plug-In . SVG Version: 6.00 Build 0)  -->
<!DOCTYPE svg PUBLIC "-//W3C//DTD SVG 1.1//EN" "http://www.w3.org/Graphics/SVG/1.1/DTD/svg11.dtd">
<svg version="1.1" id="Слой_1" xmlns="http://www.w3.org/2000/svg" xmlns:xlink="http://www.w3.org/1999/xlink" x="0px" y="0px"
	 width="64px" height="64px" viewBox="0 0 64 64" enable-background="new 0 0 64 64" xml:space="preserve">
<rect fill="#FFFFFF" fill-opacity="0" width="64" height="64"/>
<g>
	<path fill="#E5E5E5" d="M32,2.997c15.992,0,29.003,13.011,29.003,29.003S47.992,61.003,32,61.003S2.997,47.992,2.997,32
		S16.008,2.997,32,2.997 M32,1.997C15.43,1.997,1.997,15.43,1.997,32S15.43,62.003,32,62.003S62.003,48.57,62.003,32
		S48.57,1.997,32,1.997L32,1.997z"/>
</g>
<path fill="#0079BF" d="M25.995,41.066h-1.484V24.58l-3.701,0.506v-1.063l5.187-1.089L25.995,41.066L25.995,41.066z M40.951,35.174
	h2.24v1.264h-2.24v4.556h-1.475v-4.556h-6.924v-0.854l6.799-12.614h1.6V35.174z M34.241,35.174h5.235v-9.965l-0.074-0.012
	l-0.42,1.089L34.241,35.174z"/>
</svg>
