<?xml version="1.0" encoding="utf-8"?>
<!-- Generator: Adobe Illustrator 16.0.0, SVG Export Plug-In . SVG Version: 6.00 Build 0)  -->
<!DOCTYPE svg PUBLIC "-//W3C//DTD SVG 1.1//EN" "http://www.w3.org/Graphics/SVG/1.1/DTD/svg11.dtd">
<svg version="1.1" id="Слой_1" xmlns="http://www.w3.org/2000/svg" xmlns:xlink="http://www.w3.org/1999/xlink" x="0px" y="0px"
	 width="64px" height="64px" viewBox="0 0 64 64" enable-background="new 0 0 64 64" xml:space="preserve">
<rect fill="#FFFFFF" fill-opacity="0" width="64" height="64"/>
<g>
	<path fill="#E5E5E5" d="M32,2.997c15.992,0,29.003,13.011,29.003,29.003S47.992,61.003,32,61.003S2.997,47.992,2.997,32
		S16.008,2.997,32,2.997 M32,1.997C15.43,1.997,1.997,15.43,1.997,32S15.43,62.003,32,62.003S62.003,48.57,62.003,32
		S48.57,1.997,32,1.997L32,1.997z"/>
</g>
<g>
	<path fill="#0079BF" d="M32,21.625l3.352,6.832l7.496,1.094l-5.424,5.317l1.28,7.507L32,38.83l-6.704,3.545l1.281-7.507
		l-5.424-5.317l7.494-1.094L32,21.625 M32,20.125c-0.572,0-1.095,0.326-1.347,0.839l-3.004,6.123l-6.712,0.979
		c-0.564,0.083-1.033,0.478-1.209,1.019c-0.177,0.542-0.031,1.137,0.376,1.537l4.863,4.769l-1.149,6.732
		c-0.096,0.563,0.136,1.132,0.599,1.467c0.261,0.189,0.57,0.285,0.88,0.285c0.24,0,0.481-0.059,0.701-0.174L32,40.527l6.003,3.174
		c0.222,0.115,0.461,0.174,0.701,0.174c0.31,0,0.619-0.096,0.88-0.285c0.463-0.335,0.695-0.902,0.6-1.467l-1.148-6.732l4.861-4.769
		c0.408-0.399,0.554-0.994,0.377-1.536c-0.178-0.542-0.646-0.937-1.209-1.019l-6.713-0.979l-3.004-6.123
		C33.096,20.451,32.572,20.125,32,20.125L32,20.125z"/>
</g>
</svg>
