<svg version="1.1" id="Слой_1" xmlns="http://www.w3.org/2000/svg" xmlns:xlink="http://www.w3.org/1999/xlink" x="0px" y="0px" width="64px" height="64px" viewBox="0 0 64 64" enable-background="new 0 0 64 64" xml:space="preserve">
<path fill="#3FB1FF" d="M57.011,39.586L33.129,27.971v-1.293c0.011-0.002,0.021-0.005,0.032-0.007
	c3.763-0.932,6.288-3.276,6.288-6.29c0-3.473-2.815-6.288-6.288-6.288c-3.206,0-5.994,2.347-6.27,5.491
	c-0.008,0.049-0.015,0.161-0.015,0.167c0,0.625,0.508,1.13,1.133,1.13c0.624,0,1.132-0.506,1.132-1.13h0.006
	c0.091-0.979,0.567-1.681,0.984-2.118c0.772-0.812,1.878-1.277,3.029-1.277c2.22,0,4.024,1.806,4.024,4.024
	c0,0.847-0.354,1.623-1.053,2.308c-0.816,0.801-2.031,1.417-3.515,1.784c0,0-1.718,0.531-1.749,0.542l-0.001,2.957L6.99,39.586
	c-1.28,0.66-2.145,1.899-2.145,3.32c0,2.115,1.911,3.83,4.268,3.83c0.043,0,45.731,0,45.774,0c2.356,0,4.267-1.715,4.267-3.83
	C59.154,41.485,58.291,40.246,57.011,39.586z M54.888,44.473H9.113c-1.085,0-2.004-0.717-2.004-1.566
	c0-0.522,0.344-1.014,0.919-1.313l0.01-0.003l0.011-0.007l23.949-11.652l23.955,11.652l0.011,0.007l0.01,0.003
	c0.574,0.299,0.918,0.79,0.918,1.313C56.892,43.756,55.974,44.473,54.888,44.473z"/>
</svg>
