<?xml version="1.0" encoding="utf-8"?>
<!-- Generator: Adobe Illustrator 16.0.0, SVG Export Plug-In . SVG Version: 6.00 Build 0)  -->
<!DOCTYPE svg PUBLIC "-//W3C//DTD SVG 1.1//EN" "http://www.w3.org/Graphics/SVG/1.1/DTD/svg11.dtd">
<svg version="1.1" id="Слой_1" xmlns="http://www.w3.org/2000/svg" xmlns:xlink="http://www.w3.org/1999/xlink" x="0px" y="0px"
	 width="82px" height="82px" viewBox="0 0 82 82" enable-background="new 0 0 82 82" xml:space="preserve">
<g>
	<rect x="-0.001" fill="#FFFFFF" fill-opacity="0" width="82" height="82"/>
	<path fill="#AE2323" d="M14.988,39.791c-1.166,1.492-1.725,3.09-1.653,4.732c0.071,1.811,0.881,3.228,1.548,4.097
		c-0.773,1.929-1.072,4.965,1.512,7.323c1.895,1.726,5.108,2.5,9.562,2.285c3.132-0.144,7.096-0.986,7.739-1.131
		c0.048,0.762-0.084,2.654-1.487,6.918c-1.668,5.071-1.572,8.952,0.31,11.549c1.977,2.728,5.131,2.94,6.061,2.94
		c0.895,0,1.714-0.369,2.298-1.048c1.321-1.536,1.167-4.369,1-5.68c1.571-4.215,5.978-14.551,9.704-17.418
		c0.072-0.049,0.131-0.107,0.189-0.168c1.094-1.156,1.832-2.406,2.332-3.502c0.703,0.381,1.5,0.596,2.356,0.596h7.265
		c2.736,0,4.951-2.227,4.951-4.954V26.979c0-2.738-2.226-4.954-4.951-4.954H56.46c-1.06,0-2.047,0.334-2.856,0.904l-2.799-0.334
		c-0.429-0.059-8.049-1.021-15.87-0.867c-1.416-0.107-2.75-0.168-3.988-0.168c-2.131,0-3.988,0.168-5.536,0.501
		c-3.646,0.772-6.132,2.321-7.394,4.596c-0.966,1.738-0.966,3.465-0.811,4.559c-2.37,2.146-2.787,4.514-2.704,6.181
		C14.549,38.361,14.763,39.183,14.988,39.791z M63.723,25.24c0.963,0,1.736,0.786,1.736,1.739v19.369
		c0,0.965-0.785,1.735-1.736,1.735h-7.265c-0.964,0-1.737-0.785-1.737-1.735V26.991c0-0.965,0.785-1.739,1.737-1.739h7.265V25.24z
		 M18.038,41.188c0.499-0.527,0.595-1.326,0.214-1.945c0-0.012-0.488-0.848-0.547-1.99c-0.083-1.558,0.665-2.939,2.238-4.119
		c0.559-0.429,0.785-1.168,0.547-1.834c0-0.012-0.512-1.581,0.322-3.07c0.797-1.429,2.57-2.451,5.263-3.023
		c2.153-0.465,8.786-0.262,8.845-0.262c7.657-0.167,15.396,0.834,15.479,0.845h0.013l1.112,0.124c0,2.056-0.037,19.83-0.037,21.705
		c-0.215,0.797-0.563,2.775-1.967,4.289c-5.348,4.236-10.573,18.537-10.799,19.156c-0.097,0.25-0.118,0.522-0.071,0.797
		c0.203,1.334,0.131,2.965-0.153,3.451c-0.632-0.012-2.333-0.188-3.358-1.605c-1.215-1.68-1.166-4.68,0.145-8.656
		c2-6.06,2.166-9.251,0.582-10.656c-0.786-0.703-1.832-0.737-2.596-0.463c-0.726,0.166-2.178,0.439-2.228,0.451
		c-3.653,0.799-10.202,1.287-12.476-0.785c-1.931-1.763-0.562-4.095-0.405-4.345c0.44-0.667,0.309-1.535-0.286-2.071
		c-0.012-0.013-1.262-1.19-1.322-2.773C16.501,43.346,17,42.26,18.038,41.188z"/>
</g>
</svg>
