<?xml version="1.0" encoding="utf-8"?>
<!-- Generator: Adobe Illustrator 16.0.0, SVG Export Plug-In . SVG Version: 6.00 Build 0)  -->
<!DOCTYPE svg PUBLIC "-//W3C//DTD SVG 1.1//EN" "http://www.w3.org/Graphics/SVG/1.1/DTD/svg11.dtd">
<svg version="1.1" id="Слой_1" xmlns="http://www.w3.org/2000/svg" xmlns:xlink="http://www.w3.org/1999/xlink" x="0px" y="0px"
	 width="64px" height="64px" viewBox="0 0 64 64" enable-background="new 0 0 64 64" xml:space="preserve">
<rect opacity="0" fill="#201600" width="64" height="64"/>
<path fill="#3FB1FF" d="M49.117,17.107c-2.17-2.206-5.059-3.421-8.133-3.421c-3.072,0-5.963,1.218-8.14,3.431l-0.832,0.846
	l-0.849-0.864c-2.181-2.217-5.075-3.438-8.149-3.438c-3.069,0-5.954,1.215-8.124,3.421c-2.178,2.214-3.372,5.151-3.363,8.269
	c0,3.111,1.2,6.044,3.379,8.26L30.91,49.881c0.286,0.292,0.679,0.459,1.077,0.459c0.403,0,0.795-0.164,1.077-0.449l16.037-16.246
	c2.174-2.21,3.371-5.147,3.371-8.268C52.481,22.253,51.29,19.316,49.117,17.107z"/>
</svg>
