
<svg version="1.1" id="" xmlns="http://www.w3.org/2000/svg" xmlns:xlink="http://www.w3.org/1999/xlink" x="0px" y="0px" width="64px" height="64px" viewBox="0 0 64 64" enable-background="new 0 0 64 64" xml:space="preserve">
<path fill="" d="M44.123,26.247l-4.46-0.425v-9.366c0-0.716-0.357-1.374-0.957-1.761c-0.341-0.221-0.734-0.338-1.139-0.338
	c-0.297,0-0.587,0.063-0.86,0.186l-20.341,9.146c-0.063,0.029-0.121,0.066-0.172,0.113c-0.138,0.123-0.216,0.301-0.216,0.486v20.039
	c0,0.34,0.255,0.621,0.594,0.654l27.153,2.586c0.068,0.004,0.133,0.008,0.198,0.008c0.524,0,1.025-0.193,1.411-0.545
	c0.437-0.395,0.687-0.961,0.687-1.551V28.334C46.021,27.248,45.205,26.351,44.123,26.247z M38.351,21.712v3.986l-7.314-0.697
	L38.351,21.712z M38.351,20.271l-0.457,0.205v-1.005c0-0.563-0.281-1.083-0.754-1.389c-0.27-0.174-0.579-0.266-0.896-0.266
	c-0.235,0-0.465,0.05-0.681,0.146l-13.706,6.162l-2.688-0.255l18.077-8.129c0.104-0.047,0.214-0.07,0.323-0.07
	c0.147,0,0.294,0.044,0.423,0.128c0.228,0.146,0.358,0.386,0.358,0.656V20.271z M36.103,19.163c0.046-0.021,0.093-0.031,0.139-0.031
	c0.09,0,0.157,0.038,0.183,0.055c0.059,0.037,0.156,0.125,0.156,0.284v1.597l-8.188,3.682l-3.889-0.371L36.103,19.163z
	 M44.708,45.48c0,0.225-0.092,0.43-0.257,0.578c-0.145,0.133-0.329,0.205-0.522,0.205c-0.025,0-0.051-0.002-0.077-0.004
	l-26.56-2.529V25.012l26.707,2.545c0.404,0.038,0.709,0.372,0.709,0.777V45.48z M41.422,38.979c-1.134,0-2.056-0.994-2.056-2.217
	c0-1.221,0.922-2.215,2.056-2.215c1.135,0,2.059,0.994,2.059,2.215C43.48,37.984,42.557,38.979,41.422,38.979z M41.422,35.762
	c-0.464,0-0.841,0.449-0.841,1c0,0.555,0.377,1.004,0.841,1.004c0.465,0,0.843-0.449,0.843-1.004
	C42.265,36.211,41.887,35.762,41.422,35.762z"/>
</svg>
