<?xml version="1.0" encoding="UTF-8"?>
<!DOCTYPE svg PUBLIC "-//W3C//DTD SVG 1.1//EN" "http://www.w3.org/Graphics/SVG/1.1/DTD/svg11.dtd">
<!-- Creator: CorelDRAW X7 -->
<svg xmlns="http://www.w3.org/2000/svg" xml:space="preserve" width="16.9332mm" height="16.9332mm" version="1.1" style="shape-rendering:geometricPrecision; text-rendering:geometricPrecision; image-rendering:optimizeQuality; fill-rule:evenodd; clip-rule:evenodd"
viewBox="0 0 477 477"
 xmlns:xlink="http://www.w3.org/1999/xlink">
 <defs>
  <style type="text/css">
   <![CDATA[
    .fil0 {fill:none}
    .fil1 {fill:#00B3FF}
   ]]>
  </style>
 </defs>
 <g id="Слой_x0020_1">
  <metadata id="CorelCorpID_0Corel-Layer"/>
  <g id="_795586160">
   <rect class="fil0" width="477" height="477"/>
   <polygon class="fil1" points="78,327 114,302 63,293 67,267 145,280 216,238 145,197 145,200 67,214 62,188 118,178 78,150 93,128 129,153 120,104 146,100 160,175 226,213 226,142 169,86 188,67 226,105 226,51 252,51 252,105 290,67 308,86 252,142 252,213 312,179 325,101 351,106 342,158 385,128 400,150 357,180 410,189 405,215 327,201 327,201 262,238 328,277 406,262 410,288 358,298 400,327 385,349 343,320 353,372 327,377 312,299 313,299 252,264 252,345 308,401 290,420 252,382 252,426 226,426 226,382 188,420 169,401 226,345 226,264 160,302 161,302 147,380 121,376 130,323 93,349 "/>
  </g>
 </g>
</svg>
