<?xml version="1.0" encoding="utf-8"?>
<!-- Generator: Adobe Illustrator 16.0.0, SVG Export Plug-In . SVG Version: 6.00 Build 0)  -->
<!DOCTYPE svg PUBLIC "-//W3C//DTD SVG 1.1//EN" "http://www.w3.org/Graphics/SVG/1.1/DTD/svg11.dtd">
<svg version="1.1" id="Слой_2" xmlns="http://www.w3.org/2000/svg" xmlns:xlink="http://www.w3.org/1999/xlink" x="0px" y="0px"
	 width="106px" height="106px" viewBox="0 0 106 106" enable-background="new 0 0 106 106" xml:space="preserve">
<rect opacity="0" fill="#FFFFFF" width="106" height="106"/>
<path fill="#52BB5E" d="M52.051,72c-1.197,0-2.397-0.428-3.354-1.293l-20.9-18.917c-2.047-1.853-2.205-5.015-0.352-7.062
	c1.854-2.049,5.015-2.206,7.062-0.352l17.24,15.604l22.631-24.383c1.88-2.023,5.042-2.141,7.066-0.262
	c2.023,1.879,2.141,5.042,0.262,7.066l-25.998,28C54.729,71.462,53.394,72,52.051,72z"/>
<g>
	<path fill="#E5E5E5" d="M53,3.032c27.553,0,49.968,22.416,49.968,49.968S80.553,102.968,53,102.968S3.032,80.553,3.032,53
		S25.447,3.032,53,3.032 M53,1.032C24.3,1.032,1.032,24.298,1.032,53c0,28.701,23.268,51.968,51.968,51.968
		c28.701,0,51.968-23.267,51.968-51.968C104.968,24.298,81.701,1.032,53,1.032L53,1.032z"/>
</g>
</svg>
